<svg width="400" height="330" viewBox="0 0 400 330" fill="none" xmlns="http://www.w3.org/2000/svg">
<g opacity="0.1">
<circle cx="200" cy="165" r="138.5" fill="url(#paint0_radial_643_15226)" fill-opacity="0.2" stroke="#212427"/>
<circle cx="200" cy="165" r="103.5" stroke="#212427"/>
<circle cx="200" cy="165" r="69.5" stroke="#212427"/>
<circle cx="200" cy="165" r="34.5" stroke="#212427"/>
<line x1="61" y1="164.5" x2="339" y2="164.5" stroke="#212427"/>
<line x1="200.5" y1="26" x2="200.5" y2="304" stroke="#212427"/>
<line x1="79.873" y1="95.067" x2="320.628" y2="234.067" stroke="#212427"/>
<line x1="320.627" y1="95.933" x2="79.8719" y2="234.933" stroke="#212427"/>
</g>
<path opacity="0.4" d="M181.848 29.248C181.464 29.248 181.04 29.272 180.68 29.304C181.04 28.072 183.528 27.568 183.528 25.808C183.528 24.824 182.808 24.16 181.712 24.16C180.568 24.16 179.792 24.888 179.824 25.984H180.672C180.632 25.328 181.008 24.912 181.664 24.912C182.248 24.912 182.64 25.248 182.64 25.848C182.64 27.312 179.768 27.584 179.768 29.8V30H183.592V29.248H181.848ZM186.465 30.048C187.633 30.048 188.505 29.104 188.505 27.096C188.505 25.128 187.657 24.16 186.473 24.16C185.297 24.16 184.425 25.096 184.425 27.096C184.425 29.08 185.273 30.048 186.465 30.048ZM186.457 29.296C185.713 29.296 185.313 28.584 185.313 27.072C185.313 25.72 185.649 24.904 186.465 24.904C187.201 24.904 187.617 25.592 187.617 27.12C187.617 28.472 187.281 29.296 186.457 29.296ZM191.489 30.048C192.657 30.048 193.529 29.104 193.529 27.096C193.529 25.128 192.681 24.16 191.497 24.16C190.321 24.16 189.449 25.096 189.449 27.096C189.449 29.08 190.297 30.048 191.489 30.048ZM191.481 29.296C190.737 29.296 190.337 28.584 190.337 27.072C190.337 25.72 190.673 24.904 191.489 24.904C192.225 24.904 192.641 25.592 192.641 27.12C192.641 28.472 192.305 29.296 191.481 29.296Z" fill="#212427"/>
<path opacity="0.4" d="M180.766 60.88H182.278V65H183.118V59.232H182.326C182.246 59.864 181.726 60.24 180.958 60.24H180.766V60.88ZM186.661 61.168C186.221 61.168 185.757 61.328 185.525 61.568L185.493 61.56L185.565 59.976H188.197V59.232H184.821L184.685 62.456H185.485C185.621 62.136 186.021 61.896 186.493 61.896C187.189 61.896 187.629 62.416 187.629 63.128C187.629 63.856 187.181 64.328 186.509 64.328C185.837 64.328 185.421 63.856 185.437 63.224H184.573C184.557 64.336 185.357 65.08 186.501 65.08C187.701 65.08 188.509 64.272 188.509 63.104C188.509 61.976 187.749 61.168 186.661 61.168ZM191.489 65.048C192.657 65.048 193.529 64.104 193.529 62.096C193.529 60.128 192.681 59.16 191.497 59.16C190.321 59.16 189.449 60.096 189.449 62.096C189.449 64.08 190.297 65.048 191.489 65.048ZM191.481 64.296C190.737 64.296 190.337 63.584 190.337 62.072C190.337 60.72 190.673 59.904 191.489 59.904C192.225 59.904 192.641 60.592 192.641 62.12C192.641 63.472 192.305 64.296 191.481 64.296Z" fill="#212427"/>
<path opacity="0.4" d="M180.594 94.88H182.106V99H182.946V93.232H182.154C182.074 93.864 181.554 94.24 180.786 94.24H180.594V94.88ZM186.465 99.048C187.633 99.048 188.505 98.104 188.505 96.096C188.505 94.128 187.657 93.16 186.473 93.16C185.297 93.16 184.425 94.096 184.425 96.096C184.425 98.08 185.273 99.048 186.465 99.048ZM186.457 98.296C185.713 98.296 185.313 97.584 185.313 96.072C185.313 94.72 185.649 93.904 186.465 93.904C187.201 93.904 187.617 94.592 187.617 96.12C187.617 97.472 187.281 98.296 186.457 98.296ZM191.489 99.048C192.657 99.048 193.529 98.104 193.529 96.096C193.529 94.128 192.681 93.16 191.497 93.16C190.321 93.16 189.449 94.096 189.449 96.096C189.449 98.08 190.297 99.048 191.489 99.048ZM191.481 98.296C190.737 98.296 190.337 97.584 190.337 96.072C190.337 94.72 190.673 93.904 191.489 93.904C192.225 93.904 192.641 94.592 192.641 96.12C192.641 97.472 192.305 98.296 191.481 98.296Z" fill="#212427"/>
<path opacity="0.4" d="M186.661 130.168C186.221 130.168 185.757 130.328 185.525 130.568L185.493 130.56L185.565 128.976H188.197V128.232H184.821L184.685 131.456H185.485C185.621 131.136 186.021 130.896 186.493 130.896C187.189 130.896 187.629 131.416 187.629 132.128C187.629 132.856 187.181 133.328 186.509 133.328C185.837 133.328 185.421 132.856 185.437 132.224H184.573C184.557 133.336 185.357 134.08 186.501 134.08C187.701 134.08 188.509 133.272 188.509 132.104C188.509 130.976 187.749 130.168 186.661 130.168ZM191.489 134.048C192.657 134.048 193.529 133.104 193.529 131.096C193.529 129.128 192.681 128.16 191.497 128.16C190.321 128.16 189.449 129.096 189.449 131.096C189.449 133.08 190.297 134.048 191.489 134.048ZM191.481 133.296C190.737 133.296 190.337 132.584 190.337 131.072C190.337 129.72 190.673 128.904 191.489 128.904C192.225 128.904 192.641 129.592 192.641 131.12C192.641 132.472 192.305 133.296 191.481 133.296Z" fill="#212427"/>
<path d="M182.5 154L200.5 55.5L279.5 119.5L272 206L200.5 247.5L149.5 194.5L182.5 154Z" fill="url(#paint1_radial_643_15226)" fill-opacity="0.1" stroke="url(#paint2_radial_643_15226)"/>
<path opacity="0.4" d="M182.378 15H183.488V11.86H187.028V10.93H183.488V8.68H187.428V7.71H182.378V15ZM188.837 15H189.887V12.71C189.887 11.2 190.637 10.48 191.937 10.64V9.68C190.987 9.58 190.157 9.96 189.907 10.85H189.847L189.757 9.74H188.837V15ZM192.682 13.53C192.682 14.49 193.392 15.1 194.402 15.1C195.202 15.1 195.862 14.72 196.122 14.15H196.192C196.202 14.76 196.542 15.07 197.132 15.07C197.292 15.07 197.492 15.04 197.662 14.99V14.22C197.632 14.23 197.552 14.24 197.492 14.24C197.212 14.24 197.182 14.05 197.182 13.85V11.34C197.182 10.29 196.492 9.64 195.132 9.64C193.792 9.64 192.962 10.29 192.962 11.44H193.962C193.942 10.87 194.362 10.48 195.092 10.48C195.712 10.48 196.132 10.74 196.132 11.38V11.79L194.592 11.91C193.442 12.01 192.682 12.51 192.682 13.53ZM193.752 13.46C193.752 12.96 194.082 12.63 194.912 12.57L196.132 12.47V12.82C196.132 13.66 195.572 14.26 194.712 14.26C194.132 14.26 193.752 13.97 193.752 13.46ZM199.115 15H200.165V12.24C200.165 11.24 200.735 10.55 201.605 10.55C202.345 10.55 202.765 10.98 202.765 11.9V15H203.825V11.79C203.825 10.49 203.185 9.64 202.005 9.64C201.215 9.64 200.575 10.03 200.245 10.72H200.175L200.035 9.74H199.115V15ZM210.136 13.17H209.076C208.996 13.78 208.496 14.19 207.786 14.19C206.906 14.19 206.326 13.57 206.326 12.39C206.326 11.29 206.826 10.55 207.796 10.55C208.396 10.55 208.916 10.85 209.056 11.51H210.116C210.006 10.38 209.076 9.64 207.816 9.64C206.246 9.64 205.246 10.73 205.246 12.38C205.246 14.02 206.246 15.1 207.786 15.1C209.086 15.1 210.046 14.33 210.136 13.17ZM213.759 15.1C215.039 15.1 215.979 14.41 216.159 13.39H215.099C214.979 13.9 214.479 14.26 213.769 14.26C212.869 14.26 212.279 13.67 212.309 12.6H216.079C216.109 12.44 216.119 12.2 216.119 12.01C216.119 10.59 215.239 9.64 213.749 9.64C212.249 9.64 211.239 10.72 211.239 12.38C211.239 14.03 212.259 15.1 213.759 15.1ZM212.309 11.85C212.349 11.02 212.899 10.48 213.729 10.48C214.569 10.48 215.059 10.98 215.069 11.85H212.309Z" fill="#212427"/>
<path opacity="0.4" d="M179.898 321.1V322.01H182.508C182.438 323.24 181.578 324.13 180.198 324.13C178.858 324.13 177.928 323.3 177.928 321.45C177.928 319.7 178.768 318.61 180.368 318.61C181.458 318.61 182.268 319.11 182.468 319.98H183.618C183.458 318.56 182.188 317.62 180.418 317.62C178.138 317.62 176.758 319.14 176.758 321.44C176.758 323.64 177.948 325.1 180.068 325.1C181.208 325.1 182.218 324.57 182.628 323.81H182.698L182.788 325H183.698V321.1H179.898ZM187.428 325.1C188.708 325.1 189.648 324.41 189.828 323.39H188.768C188.648 323.9 188.148 324.26 187.438 324.26C186.538 324.26 185.948 323.67 185.978 322.6H189.748C189.778 322.44 189.788 322.2 189.788 322.01C189.788 320.59 188.908 319.64 187.418 319.64C185.918 319.64 184.908 320.72 184.908 322.38C184.908 324.03 185.928 325.1 187.428 325.1ZM185.978 321.85C186.018 321.02 186.568 320.48 187.398 320.48C188.238 320.48 188.728 320.98 188.738 321.85H185.978ZM191.331 325H192.381V322.71C192.381 321.2 193.131 320.48 194.431 320.64V319.68C193.481 319.58 192.651 319.96 192.401 320.85H192.341L192.251 319.74H191.331V325ZM195.645 325H196.695V322.15C196.695 321.21 197.175 320.55 197.965 320.55C198.635 320.55 199.005 320.98 199.005 321.89V325H200.065V322.17C200.065 321.23 200.455 320.55 201.315 320.55C201.995 320.55 202.375 320.98 202.375 321.9V325H203.425V321.79C203.425 320.47 202.805 319.64 201.685 319.64C200.955 319.64 200.295 320.01 199.985 320.76H199.895C199.665 320.1 199.125 319.64 198.365 319.64C197.645 319.64 197.095 319.99 196.775 320.72H196.695L196.555 319.74H195.645V325ZM204.831 323.53C204.831 324.49 205.541 325.1 206.551 325.1C207.351 325.1 208.011 324.72 208.271 324.15H208.341C208.351 324.76 208.691 325.07 209.281 325.07C209.441 325.07 209.641 325.04 209.811 324.99V324.22C209.781 324.23 209.701 324.24 209.641 324.24C209.361 324.24 209.331 324.05 209.331 323.85V321.34C209.331 320.29 208.641 319.64 207.281 319.64C205.941 319.64 205.111 320.29 205.111 321.44H206.111C206.091 320.87 206.511 320.48 207.241 320.48C207.861 320.48 208.281 320.74 208.281 321.38V321.79L206.741 321.91C205.591 322.01 204.831 322.51 204.831 323.53ZM205.901 323.46C205.901 322.96 206.231 322.63 207.061 322.57L208.281 322.47V322.82C208.281 323.66 207.721 324.26 206.861 324.26C206.281 324.26 205.901 323.97 205.901 323.46ZM211.264 325H212.314V322.24C212.314 321.24 212.884 320.55 213.754 320.55C214.494 320.55 214.914 320.98 214.914 321.9V325H215.974V321.79C215.974 320.49 215.334 319.64 214.154 319.64C213.364 319.64 212.724 320.03 212.394 320.72H212.324L212.184 319.74H211.264V325ZM216.789 319.74L218.769 324.8L218.639 325.17C218.489 325.61 218.149 325.89 217.599 325.89C217.439 325.89 217.279 325.87 217.149 325.82V326.69C217.279 326.74 217.489 326.78 217.719 326.78C218.649 326.78 219.359 326.36 219.739 325.28L221.689 319.74H220.659L219.359 323.65H219.299L217.909 319.74H216.789Z" fill="#212427"/>
<path opacity="0.4" d="M335.88 91.34C335.88 93.19 337.04 94.1 338.83 94.1C340.83 94.1 341.79 92.99 341.79 91.34V86.71H340.68V91.29C340.68 92.38 340.13 93.08 338.84 93.08C337.71 93.08 336.99 92.55 336.99 91.29V86.71H335.88V91.34ZM344.556 91.74H343.406C343.426 93.12 344.376 94.1 346.316 94.1C348.056 94.1 349.146 93.28 349.146 91.9C349.146 90.55 348.096 90.04 347.196 89.87L345.936 89.61C345.476 89.51 344.736 89.32 344.736 88.55C344.736 87.91 345.266 87.49 346.176 87.49C347.086 87.49 347.706 87.88 347.756 88.74H348.896C348.876 87.46 347.936 86.61 346.236 86.61C344.616 86.61 343.566 87.44 343.566 88.7C343.566 90.2 344.976 90.53 345.716 90.67L346.886 90.93C347.206 91 347.966 91.16 347.966 92C347.966 92.72 347.366 93.21 346.336 93.21C345.186 93.21 344.586 92.7 344.556 91.74Z" fill="#212427"/>
<path opacity="0.4" d="M26.58 91.34C26.58 93.19 27.74 94.1 29.53 94.1C31.53 94.1 32.49 92.99 32.49 91.34V86.71H31.38V91.29C31.38 92.38 30.83 93.08 29.54 93.08C28.41 93.08 27.69 92.55 27.69 91.29V86.71H26.58V91.34ZM34.4367 94H35.4967V92.24L36.2767 91.44L37.9767 94H39.1867L37.0667 90.79L39.0867 88.74H37.7467L35.4967 91.07V86.64H34.4367V94ZM40.3422 94H41.3922V91.71C41.3922 90.2 42.1422 89.48 43.4422 89.64V88.68C42.4922 88.58 41.6622 88.96 41.4122 89.85H41.3522L41.2622 88.74H40.3422V94ZM44.187 92.53C44.187 93.49 44.897 94.1 45.907 94.1C46.707 94.1 47.367 93.72 47.627 93.15H47.697C47.707 93.76 48.047 94.07 48.637 94.07C48.797 94.07 48.997 94.04 49.167 93.99V93.22C49.137 93.23 49.057 93.24 48.997 93.24C48.717 93.24 48.687 93.05 48.687 92.85V90.34C48.687 89.29 47.997 88.64 46.637 88.64C45.297 88.64 44.467 89.29 44.467 90.44H45.467C45.447 89.87 45.867 89.48 46.597 89.48C47.217 89.48 47.637 89.74 47.637 90.38V90.79L46.097 90.91C44.947 91.01 44.187 91.51 44.187 92.53ZM45.257 92.46C45.257 91.96 45.587 91.63 46.417 91.57L47.637 91.47V91.82C47.637 92.66 47.077 93.26 46.217 93.26C45.637 93.26 45.257 92.97 45.257 92.46ZM50.6102 87.96H51.6602V86.71H50.6102V87.96ZM50.6102 94H51.6602V88.74H50.6102V94ZM53.5469 94H54.5969V91.24C54.5969 90.24 55.1669 89.55 56.0369 89.55C56.7769 89.55 57.1969 89.98 57.1969 90.9V94H58.2569V90.79C58.2569 89.49 57.6169 88.64 56.4369 88.64C55.6469 88.64 55.0069 89.03 54.6769 89.72H54.6069L54.4669 88.74H53.5469V94ZM62.1973 94.1C63.4773 94.1 64.4173 93.41 64.5973 92.39H63.5373C63.4173 92.9 62.9173 93.26 62.2073 93.26C61.3073 93.26 60.7173 92.67 60.7473 91.6H64.5173C64.5473 91.44 64.5573 91.2 64.5573 91.01C64.5573 89.59 63.6773 88.64 62.1873 88.64C60.6873 88.64 59.6773 89.72 59.6773 91.38C59.6773 93.03 60.6973 94.1 62.1973 94.1ZM60.7473 90.85C60.7873 90.02 61.3373 89.48 62.1673 89.48C63.0073 89.48 63.4973 89.98 63.5073 90.85H60.7473Z" fill="#212427"/>
<path opacity="0.4" d="M342.06 242.57H340.92C340.72 243.5 339.99 244.11 338.85 244.11C337.47 244.11 336.59 243.06 336.59 241.36C336.59 239.68 337.47 238.61 338.87 238.61C339.9 238.61 340.69 239.18 340.92 240.12H342.06C341.84 238.6 340.59 237.62 338.87 237.62C336.8 237.62 335.42 239.13 335.42 241.36C335.42 243.6 336.78 245.1 338.87 245.1C340.59 245.1 341.87 244.11 342.06 242.57ZM343.62 245H344.67V242.21C344.67 241.22 345.23 240.55 346.11 240.55C346.85 240.55 347.27 240.98 347.27 241.89V245H348.33V241.78C348.33 240.48 347.68 239.64 346.51 239.64C345.73 239.64 345.07 240.02 344.75 240.7H344.67V237.64H343.62V245ZM350.15 238.96H351.2V237.71H350.15V238.96ZM350.15 245H351.2V239.74H350.15V245ZM353.087 245H354.137V242.24C354.137 241.24 354.707 240.55 355.577 240.55C356.317 240.55 356.737 240.98 356.737 241.9V245H357.797V241.79C357.797 240.49 357.157 239.64 355.977 239.64C355.187 239.64 354.547 240.03 354.217 240.72H354.147L354.007 239.74H353.087V245ZM359.207 243.53C359.207 244.49 359.917 245.1 360.927 245.1C361.727 245.1 362.387 244.72 362.647 244.15H362.717C362.727 244.76 363.067 245.07 363.657 245.07C363.817 245.07 364.017 245.04 364.187 244.99V244.22C364.157 244.23 364.077 244.24 364.017 244.24C363.737 244.24 363.707 244.05 363.707 243.85V241.34C363.707 240.29 363.017 239.64 361.657 239.64C360.317 239.64 359.487 240.29 359.487 241.44H360.487C360.467 240.87 360.887 240.48 361.617 240.48C362.237 240.48 362.657 240.74 362.657 241.38V241.79L361.117 241.91C359.967 242.01 359.207 242.51 359.207 243.53ZM360.277 243.46C360.277 242.96 360.607 242.63 361.437 242.57L362.657 242.47V242.82C362.657 243.66 362.097 244.26 361.237 244.26C360.657 244.26 360.277 243.97 360.277 243.46Z" fill="#212427"/>
<path opacity="0.4" d="M37.7435 242.74H36.5935C36.6135 244.12 37.5635 245.1 39.5035 245.1C41.2435 245.1 42.3335 244.28 42.3335 242.9C42.3335 241.55 41.2835 241.04 40.3835 240.87L39.1235 240.61C38.6635 240.51 37.9235 240.32 37.9235 239.55C37.9235 238.91 38.4535 238.49 39.3635 238.49C40.2735 238.49 40.8935 238.88 40.9435 239.74H42.0835C42.0635 238.46 41.1235 237.61 39.4235 237.61C37.8035 237.61 36.7535 238.44 36.7535 239.7C36.7535 241.2 38.1635 241.53 38.9035 241.67L40.0735 241.93C40.3935 242 41.1535 242.16 41.1535 243C41.1535 243.72 40.5535 244.21 39.5235 244.21C38.3735 244.21 37.7735 243.7 37.7435 242.74ZM43.982 246.67H45.032V244.03H45.112C45.362 244.68 46.022 245.1 46.872 245.1C48.222 245.1 49.122 244.06 49.122 242.35C49.122 240.7 48.262 239.64 46.892 239.64C46.052 239.64 45.372 240.06 45.112 240.69H45.032L44.932 239.74H43.982V246.67ZM45.032 242.09C45.032 241.21 45.672 240.55 46.572 240.55C47.452 240.55 48.042 241.17 48.042 242.34C48.042 243.45 47.512 244.2 46.552 244.2C45.672 244.2 45.032 243.57 45.032 242.66V242.09ZM50.1999 243.53C50.1999 244.49 50.9099 245.1 51.9199 245.1C52.7199 245.1 53.3799 244.72 53.6399 244.15H53.7099C53.7199 244.76 54.0599 245.07 54.6499 245.07C54.8099 245.07 55.0099 245.04 55.1799 244.99V244.22C55.1499 244.23 55.0699 244.24 55.0099 244.24C54.7299 244.24 54.6999 244.05 54.6999 243.85V241.34C54.6999 240.29 54.0099 239.64 52.6499 239.64C51.3099 239.64 50.4799 240.29 50.4799 241.44H51.4799C51.4599 240.87 51.8799 240.48 52.6099 240.48C53.2299 240.48 53.6499 240.74 53.6499 241.38V241.79L52.1099 241.91C50.9599 242.01 50.1999 242.51 50.1999 243.53ZM51.2699 243.46C51.2699 242.96 51.5999 242.63 52.4299 242.57L53.6499 242.47V242.82C53.6499 243.66 53.0899 244.26 52.2299 244.26C51.6499 244.26 51.2699 243.97 51.2699 243.46ZM56.623 238.96H57.673V237.71H56.623V238.96ZM56.623 245H57.673V239.74H56.623V245ZM59.5598 245H60.6098V242.24C60.6098 241.24 61.1798 240.55 62.0498 240.55C62.7898 240.55 63.2098 240.98 63.2098 241.9V245H64.2698V241.79C64.2698 240.49 63.6298 239.64 62.4498 239.64C61.6598 239.64 61.0198 240.03 60.6898 240.72H60.6198L60.4798 239.74H59.5598V245Z" fill="#212427"/>
<circle cx="200.5" cy="55.5" r="3.5" fill="#2FFFE1"/>
<circle cx="279.5" cy="119.5" r="3.5" fill="#4CDAC1"/>
<circle cx="271.5" cy="205.5" r="3.5" fill="#5DC6AF"/>
<circle cx="200.5" cy="246.5" r="3.5" fill="#5DC6B0"/>
<circle cx="149.5" cy="194.5" r="3.5" fill="#958273"/>
<circle cx="182.5" cy="154.5" r="3.5" fill="#D33731"/>
<defs>
<radialGradient id="paint0_radial_643_15226" cx="0" cy="0" r="1" gradientUnits="userSpaceOnUse" gradientTransform="translate(200 165) rotate(90) scale(139)">
<stop/>
<stop offset="1" stop-color="#4CDAC1"/>
</radialGradient>
<radialGradient id="paint1_radial_643_15226" cx="0" cy="0" r="1" gradientUnits="userSpaceOnUse" gradientTransform="translate(201 164.5) rotate(-90) scale(103.5 103.5)">
<stop stop-color="#F82B57"/>
<stop offset="0.510417" stop-color="#928E96"/>
<stop offset="1" stop-color="#30EDD3"/>
</radialGradient>
<radialGradient id="paint2_radial_643_15226" cx="0" cy="0" r="1" gradientUnits="userSpaceOnUse" gradientTransform="translate(200 164) rotate(90) scale(105 105)">
<stop stop-color="#FF0000"/>
<stop offset="0.494792" stop-color="#987E6F"/>
<stop offset="1" stop-color="#2EFEE1"/>
</radialGradient>
</defs>
</svg>
