<svg width="16" height="16" viewBox="0 0 16 16" fill="none" xmlns="http://www.w3.org/2000/svg">
<g clip-path="url(#clip0_2557_14575)">
<path d="M8 8C9.65685 8 11 6.65685 11 5C11 3.34315 9.65685 2 8 2C6.34315 2 5 3.34315 5 5C5 6.65685 6.34315 8 8 8Z" fill="#212427"/>
<path d="M14 11.8999C14.0013 11.6127 13.9196 11.3314 13.7649 11.0895C13.6102 10.8477 13.389 10.6556 13.1278 10.5364C11.5108 9.83277 9.76327 9.47952 8.00001 9.49985C6.23676 9.47952 4.48919 9.83277 2.87226 10.5364C2.61108 10.6556 2.38985 10.8477 2.23513 11.0895C2.08041 11.3314 1.99877 11.6127 2.00001 11.8999V13.9999H14V11.8999Z" fill="#212427"/>
</g>
<defs>
<clipPath id="clip0_2557_14575">
<rect width="12" height="12" fill="white" transform="translate(2 2)"/>
</clipPath>
</defs>
</svg>
