<svg width="16" height="16" viewBox="0 0 16 16" fill="none" xmlns="http://www.w3.org/2000/svg">
<g clip-path="url(#clip0_1822_120229)">
<path d="M13 6.10033V6.00033C13.0066 5.3419 12.8817 4.68877 12.6328 4.07919C12.3838 3.4696 12.0158 2.9158 11.5502 2.45019C11.0846 1.98459 10.5308 1.61654 9.92118 1.36759C9.31159 1.11863 8.65847 0.993776 8.00004 1.00033C6.79672 0.98643 5.63074 1.41782 4.72623 2.21157C3.82173 3.00532 3.24255 4.1054 3.10004 5.30033C2.20369 5.5795 1.41976 6.13732 0.862242 6.89266C0.304723 7.64801 0.00268236 8.56151 4.04567e-05 9.50033C-0.00247359 10.092 0.112206 10.6783 0.337462 11.2254C0.562718 11.7725 0.894089 12.2695 1.31245 12.6879C1.73082 13.1063 2.22789 13.4376 2.775 13.6629C3.3221 13.8882 3.90839 14.0028 4.50004 14.0003H12C13.0599 13.9972 14.0755 13.5747 14.825 12.8253C15.5744 12.0758 15.9969 11.0602 16 10.0003C15.9927 9.11231 15.6957 8.25094 15.1543 7.54705C14.6128 6.84316 13.8565 6.33521 13 6.10033ZM11.955 8.70733C11.9153 8.79468 11.8513 8.86875 11.7706 8.9207C11.6899 8.97266 11.596 9.0003 11.5 9.00033H9.00004V11.5003C9.00004 11.6329 8.94736 11.7601 8.85359 11.8539C8.75983 11.9476 8.63265 12.0003 8.50004 12.0003H7.50004C7.36743 12.0003 7.24026 11.9476 7.14649 11.8539C7.05272 11.7601 7.00004 11.6329 7.00004 11.5003V9.00033H4.50004C4.40405 9.00023 4.31013 8.9725 4.22947 8.92046C4.14882 8.86842 4.08484 8.79427 4.0452 8.70686C4.00555 8.61944 3.9919 8.52246 4.00588 8.4275C4.01986 8.33254 4.06088 8.2436 4.12404 8.17133L7.62404 4.17133C7.67214 4.11972 7.73034 4.07857 7.79503 4.05044C7.85971 4.0223 7.9295 4.00778 8.00004 4.00778C8.07058 4.00778 8.14037 4.0223 8.20505 4.05044C8.26974 4.07857 8.32794 4.11972 8.37604 4.17133L11.876 8.17133C11.9393 8.24363 11.9804 8.33264 11.9944 8.4277C12.0084 8.52276 11.9948 8.61984 11.955 8.70733Z" fill="#2DFEE1"/>
</g>
<defs>
<clipPath id="clip0_1822_120229">
<rect width="16" height="16" fill="white"/>
</clipPath>
</defs>
</svg>
