<svg width="16" height="16" viewBox="0 0 16 16" fill="none" xmlns="http://www.w3.org/2000/svg">
<path d="M12.575 2.225C12.275 1.925 11.825 1.925 11.525 2.225L6.5 7.25V9.5H8.75L13.775 4.475C14.075 4.175 14.075 3.725 13.775 3.425L12.575 2.225Z" fill="white"/>
<path d="M13.25 8.75C12.8 8.75 12.5 9.05 12.5 9.5V12.5H3.5V3.5H6.5C6.95 3.5 7.25 3.2 7.25 2.75C7.25 2.3 6.95 2 6.5 2H2.75C2.3 2 2 2.3 2 2.75V13.25C2 13.7 2.3 14 2.75 14H13.25C13.7 14 14 13.7 14 13.25V9.5C14 9.05 13.7 8.75 13.25 8.75Z" fill="white"/>
</svg>
