<svg width="16" height="16" viewBox="0 0 16 16" fill="none" xmlns="http://www.w3.org/2000/svg">
<path d="M2 10L5 8L2 6V10Z" fill="#2DFEE1"/>
<path d="M7.625 5.5H12.625C12.97 5.5 13.25 5.22 13.25 4.875V3.625C13.25 3.28 12.97 3 12.625 3H7.625C7.28 3 7 3.28 7 3.625V4.875C7 5.22 7.28 5.5 7.625 5.5Z" fill="#2DFEE1"/>
<path d="M7.625 9.25H12.625C12.97 9.25 13.25 8.97 13.25 8.625V7.375C13.25 7.03 12.97 6.75 12.625 6.75H7.625C7.28 6.75 7 7.03 7 7.375V8.625C7 8.97 7.28 9.25 7.625 9.25Z" fill="#2DFEE1"/>
<path d="M7.625 13H12.625C12.97 13 13.25 12.72 13.25 12.375V11.125C13.25 10.78 12.97 10.5 12.625 10.5H7.625C7.28 10.5 7 10.78 7 11.125V12.375C7 12.72 7.28 13 7.625 13Z" fill="#2DFEE1"/>
</svg>
