<svg width="9" height="9" viewBox="0 0 9 9" fill="none" xmlns="http://www.w3.org/2000/svg">
<g clip-path="url(#clip0_1805_2268)">
<path d="M8.88797 7.04605L5.33465 0.495172C5.24702 0.332646 5.11338 0.199591 4.95047 0.112672C4.72914 -0.00577283 4.46999 -0.0320364 4.2294 0.0395942C3.9888 0.111225 3.78622 0.274955 3.66572 0.495172L0.112967 7.04605C0.0352816 7.19021 -0.00356084 7.3521 0.000256539 7.51581C0.00407392 7.67953 0.0504197 7.83943 0.13474 7.97981C0.21906 8.1202 0.338453 8.23623 0.481187 8.3165C0.623921 8.39678 0.785085 8.43853 0.948842 8.43767H8.05209C8.20905 8.43767 8.3636 8.39904 8.50209 8.32517C8.61181 8.26693 8.70892 8.18755 8.78781 8.09159C8.8667 7.99564 8.92581 7.88501 8.96174 7.7661C8.99766 7.64719 9.00969 7.52234 8.99713 7.39875C8.98456 7.27517 8.94765 7.1553 8.88853 7.04605H8.88797ZM4.50047 7.31267C4.38921 7.31267 4.28046 7.27968 4.18796 7.21787C4.09546 7.15607 4.02336 7.06822 3.98078 6.96543C3.93821 6.86265 3.92707 6.74955 3.94878 6.64043C3.97048 6.53132 4.02405 6.43109 4.10272 6.35242C4.18139 6.27376 4.28161 6.22018 4.39073 6.19848C4.49984 6.17678 4.61294 6.18792 4.71573 6.23049C4.81851 6.27306 4.90636 6.34516 4.96817 6.43766C5.02998 6.53017 5.06297 6.63892 5.06297 6.75017C5.06297 6.89936 5.0037 7.04243 4.89821 7.14792C4.79272 7.25341 4.64965 7.31267 4.50047 7.31267V7.31267ZM5.06297 5.34392C5.06297 5.41851 5.03334 5.49005 4.98059 5.5428C4.92785 5.59554 4.85631 5.62517 4.78172 5.62517H4.21922C4.14462 5.62517 4.07309 5.59554 4.02034 5.5428C3.9676 5.49005 3.93797 5.41851 3.93797 5.34392V3.09392C3.93797 3.01933 3.9676 2.94779 4.02034 2.89505C4.07309 2.8423 4.14462 2.81267 4.21922 2.81267H4.78172C4.85631 2.81267 4.92785 2.8423 4.98059 2.89505C5.03334 2.94779 5.06297 3.01933 5.06297 3.09392V5.34392Z" fill="#FF8A00"/>
</g>
<defs>
<clipPath id="clip0_1805_2268">
<rect width="9" height="9" fill="white"/>
</clipPath>
</defs>
</svg>
