<svg width="48" height="48" viewBox="0 0 48 48" fill="none" xmlns="http://www.w3.org/2000/svg">
<path d="M45.5209 39.0396L27.5269 5.1336C27.1896 4.49002 26.6827 3.95099 26.061 3.5749C25.4393 3.19881 24.7265 3 23.9999 3C23.2733 3 22.5606 3.19881 21.9389 3.5749C21.3172 3.95099 20.8102 4.49002 20.4729 5.1336L2.47892 39.0396C2.14644 39.6609 1.98155 40.358 2.00049 41.0624C2.01943 41.7668 2.22154 42.4541 2.58692 43.0566C2.93886 43.6498 3.4394 44.1411 4.03915 44.4818C4.63891 44.8226 5.31714 45.001 6.00692 44.9996H41.9929C42.6827 45.001 43.3609 44.8226 43.9607 44.4818C44.5605 44.1411 45.061 43.6498 45.4129 43.0566C45.7783 42.4541 45.9804 41.7668 45.9994 41.0624C46.0183 40.358 45.8534 39.6609 45.5209 39.0396ZM26.2859 15.9996L25.1429 32.5706H22.8569L21.7139 15.9996H26.2859ZM23.9999 40.9996C23.4066 40.9996 22.8266 40.8236 22.3332 40.494C21.8399 40.1644 21.4553 39.6958 21.2283 39.1476C21.0012 38.5995 20.9418 37.9963 21.0576 37.4143C21.1733 36.8324 21.459 36.2978 21.8786 35.8783C22.2982 35.4587 22.8327 35.173 23.4147 35.0572C23.9966 34.9415 24.5998 35.0009 25.148 35.228C25.6962 35.455 26.1647 35.8395 26.4943 36.3329C26.824 36.8262 26.9999 37.4062 26.9999 37.9996C26.9999 38.7952 26.6839 39.5583 26.1212 40.1209C25.5586 40.6835 24.7956 40.9996 23.9999 40.9996Z" fill="#F82B57"/>
</svg>
