<svg width="24" height="25" viewBox="0 0 24 25" fill="none" xmlns="http://www.w3.org/2000/svg">
<rect x="12" y="20.5" width="12" height="2" fill="#F82B57"/>
<rect opacity="0.1" x="12" y="14.5" width="12" height="2" fill="white"/>
<rect opacity="0.1" x="12" y="8.5" width="12" height="2" fill="white"/>
<rect opacity="0.1" x="12" y="2.5" width="12" height="2" fill="white"/>
<path d="M6.708 19.8654L6.708 18.5214L7.5 18.5214L7.5 20.8914L3.288 20.8914L3.288 19.8654L6.708 19.8654ZM7.542 14.72C7.542 15.116 7.45 15.48 7.266 15.812C7.082 16.14 6.826 16.402 6.498 16.598C6.166 16.79 5.794 16.886 5.382 16.886C4.97 16.886 4.6 16.79 4.272 16.598C3.944 16.402 3.688 16.14 3.504 15.812C3.32 15.48 3.228 15.116 3.228 14.72C3.228 14.324 3.32 13.962 3.504 13.634C3.688 13.302 3.944 13.042 4.272 12.854C4.6 12.662 4.97 12.566 5.382 12.566C5.794 12.566 6.166 12.662 6.498 12.854C6.826 13.046 7.082 13.306 7.266 13.634C7.45 13.962 7.542 14.324 7.542 14.72ZM6.606 14.72C6.606 14.384 6.494 14.116 6.27 13.916C6.046 13.712 5.75 13.61 5.382 13.61C5.01 13.61 4.714 13.712 4.494 13.916C4.27 14.116 4.158 14.384 4.158 14.72C4.158 15.06 4.268 15.332 4.488 15.536C4.708 15.736 5.006 15.836 5.382 15.836C5.754 15.836 6.052 15.736 6.276 15.536C6.496 15.332 6.606 15.06 6.606 14.72ZM3.288 4.87919L7.5 5.97719L7.5 7.21919L4.728 7.89119L7.5 8.58719L7.5 9.82919L3.288 10.8972L3.288 9.79919L6.354 9.19319L3.288 8.44319L3.288 7.31519L6.354 6.59519L3.288 5.98319L3.288 4.87919Z" fill="#F82B57"/>
</svg>
