<svg width="24" height="25" viewBox="0 0 24 25" fill="none" xmlns="http://www.w3.org/2000/svg">
<rect x="12" y="20.5" width="12" height="2" fill="#FF8A00"/>
<rect x="12" y="14.5" width="12" height="2" fill="#FF8A00"/>
<rect opacity="0.1" x="12" y="8.5" width="12" height="2" fill="white"/>
<rect opacity="0.1" x="12" y="2.5" width="12" height="2" fill="white"/>
<path d="M3.288 16.2346L7.5 16.2346L7.5 17.2606L4.974 17.2606L7.5 18.2026L7.5 19.0306L4.968 19.9786L7.5 19.9786L7.5 21.0046L3.288 21.0046L3.288 19.7926L6.204 18.6106L3.288 17.4406L3.288 16.2346ZM4.11 13.1508L4.962 13.1508L4.962 11.7768L5.754 11.7768L5.754 13.1508L6.678 13.1508L6.678 11.5968L7.5 11.5968L7.5 14.1768L3.288 14.1768L3.288 11.5968L4.11 11.5968L4.11 13.1508ZM3.288 8.03273C3.288 7.58873 3.376 7.20073 3.552 6.86873C3.728 6.53673 3.976 6.28073 4.296 6.10073C4.612 5.91673 4.978 5.82473 5.394 5.82473C5.806 5.82473 6.172 5.91673 6.492 6.10073C6.812 6.28073 7.06 6.53873 7.236 6.87473C7.412 7.20673 7.5 7.59273 7.5 8.03273L7.5 9.61073L3.288 9.61073L3.288 8.03273ZM6.612 8.09873C6.612 7.71073 6.506 7.40873 6.294 7.19273C6.082 6.97673 5.782 6.86873 5.394 6.86873C5.006 6.86873 4.704 6.97673 4.488 7.19273C4.272 7.40873 4.164 7.71073 4.164 8.09873L4.164 8.58473L6.612 8.58473L6.612 8.09873Z" fill="#FF8A00"/>
</svg>
