<svg width="24" height="25" viewBox="0 0 24 25" fill="none" xmlns="http://www.w3.org/2000/svg">
<rect x="12" y="20.5" width="12" height="2" fill="#00C9AD"/>
<rect x="12" y="14.5" width="12" height="2" fill="#00C9AD"/>
<rect x="12" y="8.5" width="12" height="2" fill="#00C9AD"/>
<rect opacity="0.1" x="12" y="2.5" width="12" height="2" fill="#212427"/>
<path d="M3.288 19.0186L7.5 19.0186L7.5 20.0446L5.766 20.0446L5.766 21.6406L7.5 21.6406L7.5 22.6666L3.288 22.6666L3.288 21.6406L4.938 21.6406L4.938 20.0446L3.288 20.0446L3.288 19.0186ZM3.288 15.9319L7.5 15.9319L7.5 16.9579L3.288 16.9579L3.288 15.9319ZM4.62 11.0724C4.48 11.1484 4.374 11.2584 4.302 11.4024C4.226 11.5424 4.188 11.7084 4.188 11.9004C4.188 12.2324 4.298 12.4984 4.518 12.6984C4.734 12.8984 5.024 12.9984 5.388 12.9984C5.776 12.9984 6.08 12.8944 6.3 12.6864C6.516 12.4744 6.624 12.1844 6.624 11.8164C6.624 11.5644 6.56 11.3524 6.432 11.1804C6.304 11.0044 6.12 10.8764 5.88 10.7964L5.88 12.0984L5.124 12.0984L5.124 9.86639L6.078 9.86639C6.334 9.94239 6.572 10.0724 6.792 10.2564C7.012 10.4364 7.19 10.6664 7.326 10.9464C7.462 11.2264 7.53 11.5424 7.53 11.8944C7.53 12.3104 7.44 12.6824 7.26 13.0104C7.076 13.3344 6.822 13.5884 6.498 13.7724C6.174 13.9524 5.804 14.0424 5.388 14.0424C4.972 14.0424 4.602 13.9524 4.278 13.7724C3.95 13.5884 3.696 13.3344 3.516 13.0104C3.332 12.6864 3.24 12.3164 3.24 11.9004C3.24 11.3964 3.362 10.9724 3.606 10.6284C3.85 10.2804 4.188 10.0504 4.62 9.93839L4.62 11.0724ZM3.288 4.33008L7.5 4.33008L7.5 5.35608L5.766 5.35608L5.766 6.95208L7.5 6.95208L7.5 7.97808L3.288 7.97808L3.288 6.95208L4.938 6.95208L4.938 5.35608L3.288 5.35608L3.288 4.33008Z" fill="#00C9AD"/>
</svg>
