<svg width="16" height="16" viewBox="0 0 16 16" fill="none" xmlns="http://www.w3.org/2000/svg">
<path d="M11 6.5C12.2405 6.5 13.25 5.4905 13.25 4.25C13.25 3.0095 12.2405 2 11 2C9.7595 2 8.75 3.0095 8.75 4.25C8.75 4.41725 8.77175 4.57925 8.80625 4.73675L6.39125 6.24575C6.00725 5.9405 5.528 5.75 5 5.75C3.7595 5.75 2.75 6.7595 2.75 8C2.75 9.2405 3.7595 10.25 5 10.25C5.528 10.25 6.00725 10.0595 6.39125 9.75425L8.80625 11.2632C8.77175 11.4207 8.75 11.5827 8.75 11.75C8.75 12.9905 9.7595 14 11 14C12.2405 14 13.25 12.9905 13.25 11.75C13.25 10.5095 12.2405 9.5 11 9.5C10.472 9.5 9.99275 9.6905 9.60875 9.99575L7.19375 8.48675C7.22825 8.32925 7.25 8.16725 7.25 8C7.25 7.83275 7.22825 7.67075 7.19375 7.51325L9.60875 6.00425C9.99275 6.3095 10.472 6.5 11 6.5Z" fill="white"/>
</svg>
