<svg width="16" height="16" viewBox="0 0 16 16" fill="none" xmlns="http://www.w3.org/2000/svg">
<path fill-rule="evenodd" clip-rule="evenodd" d="M0 4.99949L4.99949 0H11.0005L16 4.99949V11L11 16H5L0 11V4.99949Z" fill="#212427"/>
<path d="M8.7192 9.156H7.2912L6.9912 3.432H9.0192L8.7192 9.156ZM6.9672 11.16C6.9672 10.792 7.0672 10.536 7.2672 10.392C7.4672 10.24 7.7112 10.164 7.9992 10.164C8.2792 10.164 8.5192 10.24 8.7192 10.392C8.9192 10.536 9.0192 10.792 9.0192 11.16C9.0192 11.512 8.9192 11.768 8.7192 11.928C8.5192 12.08 8.2792 12.156 7.9992 12.156C7.7112 12.156 7.4672 12.08 7.2672 11.928C7.0672 11.768 6.9672 11.512 6.9672 11.16Z" fill="white"/>
</svg>
