<svg width="16" height="16" viewBox="0 0 16 16" fill="none" xmlns="http://www.w3.org/2000/svg">
<path fill-rule="evenodd" clip-rule="evenodd" d="M4.99949 0L0 4.99949V11L5 16H11L16 11V4.99949L11.0005 0H4.99949ZM7.2912 9.156H8.7192L9.0192 3.432H6.9912L7.2912 9.156ZM7.2672 10.392C7.0672 10.536 6.9672 10.792 6.9672 11.16C6.9672 11.512 7.0672 11.768 7.2672 11.928C7.4672 12.08 7.7112 12.156 7.9992 12.156C8.2792 12.156 8.5192 12.08 8.7192 11.928C8.9192 11.768 9.0192 11.512 9.0192 11.16C9.0192 10.792 8.9192 10.536 8.7192 10.392C8.5192 10.24 8.2792 10.164 7.9992 10.164C7.7112 10.164 7.4672 10.24 7.2672 10.392Z" fill="white"/>
</svg>
