<svg width="16" height="16" viewBox="0 0 16 16" fill="none" xmlns="http://www.w3.org/2000/svg">
<path d="M5.30715 5.30768C6.76888 3.84595 9.23073 3.84595 10.6925 5.30768C11.231 5.84621 11.6157 6.61554 11.7695 7.38487L13.3082 7.15407C13.1543 6.00008 12.6158 4.99994 11.8465 4.23061C9.76927 2.15342 6.38421 2.15342 4.23008 4.23061L2.53756 2.53809L1.99902 7.4618L6.92274 6.92327L5.30715 5.30768Z" fill="#212427"/>
<path d="M14.0006 8.53906L9.07685 9.07759L10.6924 10.6932C9.23072 12.1549 6.76886 12.1549 5.30713 10.6932C4.7686 10.1547 4.38393 9.38533 4.23007 8.616L2.69141 8.8468C2.84527 10.0008 3.3838 11.0009 4.15314 11.7703C5.2302 12.8473 6.53806 13.3089 7.92286 13.3089C9.30765 13.3089 10.6924 12.7704 11.6926 11.7703L13.3851 13.4628L14.0006 8.53906Z" fill="#212427"/>
</svg>
