<svg width="16" height="16" viewBox="0 0 16 16" fill="none" xmlns="http://www.w3.org/2000/svg">
<path d="M5.30696 5.3073C6.76869 3.84557 9.23055 3.84557 10.6923 5.3073C11.2308 5.84583 11.6155 6.61516 11.7693 7.38449L13.308 7.15369C13.1541 5.99969 12.6156 4.99956 11.8463 4.23023C9.76908 2.15304 6.38403 2.15304 4.2299 4.23023L2.53737 2.5377L1.99884 7.46142L6.92256 6.92289L5.30696 5.3073Z" fill="white"/>
<path d="M14.0007 8.53833L9.07697 9.07686L10.6926 10.6925C9.23084 12.1542 6.76898 12.1542 5.30725 10.6925C4.76872 10.1539 4.38406 9.38459 4.23019 8.61526L2.69153 8.84606C2.84539 10.0001 3.38393 11.0002 4.15326 11.7695C5.23032 12.8466 6.53818 13.3082 7.92298 13.3082C9.30777 13.3082 10.6926 12.7697 11.6927 11.7695L13.3852 13.462L14.0007 8.53833Z" fill="white"/>
</svg>
