<svg width="16" height="16" viewBox="0 0 16 16" fill="none" xmlns="http://www.w3.org/2000/svg">
<path d="M13.7157 7.26125L12.3658 6.923C12.2569 6.48326 12.0822 6.0625 11.8475 5.675L12.5645 4.48025C12.6076 4.40854 12.6254 4.32448 12.6153 4.24144C12.6051 4.15841 12.5674 4.08116 12.5082 4.022L11.975 3.49175C11.9158 3.4326 11.8386 3.39494 11.7556 3.38474C11.6725 3.37455 11.5885 3.39242 11.5168 3.4355L10.325 4.1525C9.93747 3.91808 9.51671 3.7436 9.077 3.635L8.73875 2.28425C8.71851 2.20309 8.67171 2.13102 8.6058 2.07952C8.53989 2.02801 8.45865 2.00002 8.375 2H7.625C7.54135 2.00002 7.46011 2.02801 7.3942 2.07952C7.32829 2.13102 7.28149 2.20309 7.26125 2.28425L6.923 3.63425C6.48326 3.74311 6.0625 3.91783 5.675 4.1525L4.48025 3.4355C4.40854 3.39242 4.32448 3.37455 4.24144 3.38474C4.15841 3.39494 4.08116 3.4326 4.022 3.49175L3.49175 4.025C3.4326 4.08416 3.39494 4.16141 3.38474 4.24444C3.37455 4.32748 3.39242 4.41154 3.4355 4.48325L4.1525 5.675C3.91808 6.06254 3.7436 6.48329 3.635 6.923L2.285 7.26125C2.2037 7.28135 2.13147 7.32809 2.07981 7.39401C2.02816 7.45993 2.00006 7.54125 2 7.625V8.375C2.00002 8.45865 2.02801 8.53989 2.07952 8.6058C2.13102 8.67171 2.20309 8.71851 2.28425 8.73875L3.63425 9.077C3.74311 9.51674 3.91783 9.9375 4.1525 10.325L3.4355 11.5197C3.39242 11.5915 3.37455 11.6755 3.38474 11.7586C3.39494 11.8416 3.4326 11.9188 3.49175 11.978L4.022 12.5082C4.08116 12.5674 4.15841 12.6051 4.24144 12.6153C4.32448 12.6254 4.40854 12.6076 4.48025 12.5645L5.675 11.8475C6.06254 12.0819 6.48329 12.2564 6.923 12.365L7.26125 13.715C7.28135 13.7963 7.32809 13.8685 7.39401 13.9202C7.45993 13.9718 7.54125 13.9999 7.625 14H8.375C8.45865 14 8.53989 13.972 8.6058 13.9205C8.67171 13.869 8.71851 13.7969 8.73875 13.7157L9.077 12.3658C9.51671 12.2571 9.93747 12.0827 10.325 11.8482L11.5197 12.5653C11.5915 12.6083 11.6755 12.6262 11.7586 12.616C11.8416 12.6058 11.9188 12.5681 11.978 12.509L12.5082 11.9788C12.5674 11.9196 12.6051 11.8423 12.6153 11.7593C12.6254 11.6763 12.6076 11.5922 12.5645 11.5205L11.8475 10.325C12.0819 9.93747 12.2564 9.51671 12.365 9.077L13.715 8.73875C13.7963 8.71865 13.8685 8.67191 13.9202 8.60599C13.9718 8.54007 13.9999 8.45875 14 8.375V7.625C14 7.54135 13.972 7.46011 13.9205 7.3942C13.869 7.32829 13.7969 7.28149 13.7157 7.26125ZM8 10.25C7.55499 10.25 7.11998 10.118 6.74997 9.87081C6.37996 9.62357 6.09157 9.27217 5.92127 8.86104C5.75097 8.4499 5.70642 7.9975 5.79323 7.56105C5.88005 7.12459 6.09434 6.72368 6.40901 6.40901C6.72368 6.09434 7.12459 5.88005 7.56105 5.79323C7.9975 5.70642 8.4499 5.75097 8.86104 5.92127C9.27217 6.09157 9.62357 6.37996 9.87081 6.74997C10.118 7.11998 10.25 7.55499 10.25 8C10.25 8.59674 10.0129 9.16903 9.59099 9.59099C9.16903 10.0129 8.59674 10.25 8 10.25Z" fill="white"/>
</svg>
