<svg width="9" height="9" viewBox="0 0 9 9" fill="none" xmlns="http://www.w3.org/2000/svg">
<path d="M8.88748 7.04588L5.33417 0.495004C5.24653 0.332478 5.11289 0.199423 4.94998 0.112504C4.72865 -0.00594067 4.4695 -0.0322042 4.22891 0.0394263C3.98831 0.111057 3.78573 0.274787 3.66523 0.495004L0.112479 7.04588C0.0347933 7.19004 -0.00404912 7.35193 -0.000231742 7.51565C0.00358564 7.67936 0.0499314 7.83926 0.134252 7.97965C0.218572 8.12003 0.337965 8.23606 0.480699 8.31633C0.623433 8.39661 0.784597 8.43837 0.948354 8.4375H8.0516C8.20856 8.4375 8.36311 8.39887 8.5016 8.325C8.61133 8.26677 8.70843 8.18738 8.78732 8.09142C8.86621 7.99547 8.92533 7.88485 8.96125 7.76593C8.99718 7.64702 9.0092 7.52217 8.99664 7.39859C8.98407 7.275 8.94716 7.15513 8.88804 7.04588H8.88748ZM4.49998 7.3125C4.38873 7.3125 4.27997 7.27951 4.18747 7.21771C4.09497 7.1559 4.02287 7.06805 3.9803 6.96526C3.93772 6.86248 3.92658 6.74938 3.94829 6.64027C3.96999 6.53115 4.02356 6.43092 4.10223 6.35226C4.1809 6.27359 4.28113 6.22002 4.39024 6.19831C4.49935 6.17661 4.61245 6.18775 4.71524 6.23032C4.81802 6.2729 4.90587 6.34499 4.96768 6.4375C5.02949 6.53 5.06248 6.63875 5.06248 6.75C5.06248 6.89919 5.00322 7.04226 4.89773 7.14775C4.79224 7.25324 4.64916 7.3125 4.49998 7.3125ZM5.06248 5.34375C5.06248 5.41835 5.03285 5.48988 4.9801 5.54263C4.92736 5.59537 4.85582 5.625 4.78123 5.625H4.21873C4.14414 5.625 4.0726 5.59537 4.01986 5.54263C3.96711 5.48988 3.93748 5.41835 3.93748 5.34375V3.09375C3.93748 3.01916 3.96711 2.94763 4.01986 2.89488C4.0726 2.84214 4.14414 2.8125 4.21873 2.8125H4.78123C4.85582 2.8125 4.92736 2.84214 4.9801 2.89488C5.03285 2.94763 5.06248 3.01916 5.06248 3.09375V5.34375Z" fill="#00C9AD"/>
</svg>
